<svg width="122" height="56" viewBox="0 0 122 56" fill="none" xmlns="http://www.w3.org/2000/svg">
<g id="LOGO">
<g id="LOGO_2">
<g id="_&#195;&#144;&#194;&#160;&#195;&#144;&#194;&#181;&#195;&#144;&#194;&#182;&#195;&#144;&#194;&#184;&#195;&#144;&#194;&#188;_&#195;&#144;&#194;&#184;&#195;&#144;&#194;&#183;&#195;&#144;&#194;&#190;&#195;&#144;&#194;&#187;&#195;&#145;&#194;&#143;&#195;&#145;&#226;&#128;&#160;&#195;&#144;&#194;&#184;&#195;&#144;&#194;&#184;" clip-path="url(#clip0_1_3)">
<g id="Group 2">
<g id="Group 1">
<path id="Vector" d="M77.0507 39.8005L71.8158 50.0897L48.9432 4.19041L59.413 4.20724L77.0507 39.8005Z" fill="url(#paint0_linear_1_3)"/>
<path id="Vector_2" d="M122.974 0.504868L95.4937 56L77.0507 19.7505L82.3326 9.76079L95.1917 35.9466L112.89 0.504868H122.974Z" fill="url(#paint1_linear_1_3)"/>
<path id="Vector_3" d="M30.7518 33.9642L43.3827 55.8149L33.376 56L20.8558 34.3445L17.537 28.6025H24.6276C30.5471 28.6025 35.3492 23.7894 35.3492 17.8521C35.3492 11.9115 30.5471 7.09845 24.6276 7.09845H5.10405L1 0H23.8625L27.5236 0.00673158C27.5505 0.00673158 27.5807 0.00673158 27.6109 0.00673158C36.8592 0.242337 44.2888 7.83556 44.2888 17.1723C44.2888 21.9147 42.3727 26.206 39.272 29.316C36.98 31.6149 34.0404 33.2641 30.7518 33.9642Z" fill="url(#paint2_linear_1_3)"/>
</g>
</g>
</g>
</g>
</g>
<defs>
<linearGradient id="paint0_linear_1_3" x1="80.1881" y1="4.19032" x2="44.1977" y2="4.57276" gradientUnits="userSpaceOnUse">
<stop stop-color="#030F0D" stop-opacity="0.6"/>
<stop offset="1" stop-color="#DDDDDD"/>
</linearGradient>
<linearGradient id="paint1_linear_1_3" x1="128.1" y1="0.504758" x2="69.3028" y2="1.34905" gradientUnits="userSpaceOnUse">
<stop stop-color="#030F0D" stop-opacity="0.6"/>
<stop offset="1" stop-color="#DDDDDD"/>
</linearGradient>
<linearGradient id="paint2_linear_1_3" x1="49.1207" y1="-0.000110328" x2="-6.30487" y2="0.743359" gradientUnits="userSpaceOnUse">
<stop stop-color="#030F0D" stop-opacity="0.6"/>
<stop offset="1" stop-color="#DDDDDD"/>
</linearGradient>
<clipPath id="clip0_1_3">
<rect width="121.974" height="56" fill="white"/>
</clipPath>
</defs>
</svg>
